<?xml version="1.0" encoding="UTF-8" standalone="no"?>
<svg
   xmlns:dc="http://purl.org/dc/elements/1.1/"
   xmlns:cc="http://creativecommons.org/ns#"
   xmlns:rdf="http://www.w3.org/1999/02/22-rdf-syntax-ns#"
   xmlns:svg="http://www.w3.org/2000/svg"
   xmlns="http://www.w3.org/2000/svg"
   xmlns:xlink="http://www.w3.org/1999/xlink"
   version="1.1"
   id="svg2"
   viewBox="0 0 256 255.99999"
   height="256"
   width="256">
  <defs
     id="defs4">
    <linearGradient
       id="linearGradient5519">
      <stop
         id="stop5521"
         offset="0"
         style="stop-color:#333333;stop-opacity:1;" />
      <stop
         id="stop5523"
         offset="1"
         style="stop-color:#333333;stop-opacity:0;" />
    </linearGradient>
    <linearGradient
       id="linearGradient5287">
      <stop
         id="stop5289"
         offset="0"
         style="stop-color:#1a1a1a;stop-opacity:1" />
      <stop
         style="stop-color:#333333;stop-opacity:1"
         offset="0.59582746"
         id="stop5295" />
      <stop
         id="stop5291"
         offset="1"
         style="stop-color:#1a1a1a;stop-opacity:1" />
    </linearGradient>
    <linearGradient
       id="linearGradient5258">
      <stop
         id="stop5260"
         offset="0"
         style="stop-color:#292226;stop-opacity:1" />
      <stop
         style="stop-color:#4d585c;stop-opacity:1"
         offset="0.5"
         id="stop5266" />
      <stop
         id="stop5262"
         offset="1"
         style="stop-color:#2f2f32;stop-opacity:1" />
    </linearGradient>
    <linearGradient
       id="linearGradient5242">
      <stop
         style="stop-color:#8e959b;stop-opacity:1"
         offset="0"
         id="stop5244" />
      <stop
         id="stop5256"
         offset="0.40784013"
         style="stop-color:#7b7f87;stop-opacity:1" />
      <stop
         id="stop5246"
         offset="0.49293947"
         style="stop-color:#bdc4cb;stop-opacity:1" />
      <stop
         style="stop-color:#9296a0;stop-opacity:1"
         offset="0.58763093"
         id="stop5254" />
      <stop
         style="stop-color:#626469;stop-opacity:1"
         offset="0.83860713"
         id="stop5250" />
      <stop
         id="stop5252"
         offset="0.91043139"
         style="stop-color:#b4bcc3;stop-opacity:1" />
      <stop
         style="stop-color:#99a0a7;stop-opacity:1"
         offset="1"
         id="stop5248" />
    </linearGradient>
    <linearGradient
       id="linearGradient5212">
      <stop
         id="stop5214"
         offset="0"
         style="stop-color:#a3abb4;stop-opacity:1" />
      <stop
         id="stop5216"
         offset="1"
         style="stop-color:#8d9197;stop-opacity:1" />
    </linearGradient>
    <linearGradient
       id="linearGradient5202">
      <stop
         id="stop5204"
         offset="0"
         style="stop-color:#6c7378;stop-opacity:1" />
      <stop
         style="stop-color:#b7bdc4;stop-opacity:1"
         offset="0.640625"
         id="stop5210" />
      <stop
         id="stop5206"
         offset="1"
         style="stop-color:#8d949b;stop-opacity:1" />
    </linearGradient>
    <linearGradient
       id="linearGradient5192">
      <stop
         id="stop5194"
         offset="0"
         style="stop-color:#41326c;stop-opacity:1" />
      <stop
         style="stop-color:#8a6cb9;stop-opacity:1"
         offset="0.64064854"
         id="stop5200" />
      <stop
         id="stop5196"
         offset="1"
         style="stop-color:#503789;stop-opacity:1" />
    </linearGradient>
    <linearGradient
       id="linearGradient5178">
      <stop
         id="stop5180"
         offset="0"
         style="stop-color:#55555b;stop-opacity:1" />
      <stop
         style="stop-color:#7c7c82;stop-opacity:1"
         offset="0.25"
         id="stop5190" />
      <stop
         style="stop-color:#e3e3e8;stop-opacity:1"
         offset="0.5"
         id="stop5186" />
      <stop
         id="stop5188"
         offset="0.75"
         style="stop-color:#ecebf0;stop-opacity:1" />
      <stop
         id="stop5182"
         offset="1"
         style="stop-color:#545963;stop-opacity:1" />
    </linearGradient>
    <linearGradient
       id="linearGradient5136-9">
      <stop
         style="stop-color:#57535b;stop-opacity:1"
         offset="0"
         id="stop5158" />
      <stop
         id="stop5166"
         offset="0.25999999"
         style="stop-color:#6c6f7c;stop-opacity:1" />
      <stop
         id="stop5160"
         offset="0.5"
         style="stop-color:#b4b6c3;stop-opacity:1" />
      <stop
         style="stop-color:#9099a6;stop-opacity:1"
         offset="0.75"
         id="stop5164" />
      <stop
         style="stop-color:#5d5f6b;stop-opacity:1"
         offset="1"
         id="stop5162" />
    </linearGradient>
    <linearGradient
       id="linearGradient5136">
      <stop
         id="stop5138"
         offset="0"
         style="stop-color:#74747d;stop-opacity:1" />
      <stop
         style="stop-color:#a3aab2;stop-opacity:1"
         offset="0.5"
         id="stop5144" />
      <stop
         id="stop5140"
         offset="1"
         style="stop-color:#8e97a0;stop-opacity:1" />
    </linearGradient>
    <linearGradient
       gradientTransform="translate(-2.9513262e-7,540.36219)"
       gradientUnits="userSpaceOnUse"
       y2="416.99347"
       x2="307.42303"
       y1="413.76727"
       x1="307.51453"
       id="linearGradient5142"
       xlink:href="#linearGradient5136" />
    <linearGradient
       gradientTransform="translate(-1.7173676e-8,540.36219)"
       spreadMethod="pad"
       gradientUnits="userSpaceOnUse"
       y2="418.18817"
       x2="311.32477"
       y1="412.46365"
       x1="311.32993"
       id="linearGradient5154"
       xlink:href="#linearGradient5136-9" />
    <linearGradient
       gradientUnits="userSpaceOnUse"
       y2="959.90796"
       x2="357.53085"
       y1="952.2182"
       x1="357.53085"
       id="linearGradient5184"
       xlink:href="#linearGradient5178" />
    <linearGradient
       gradientUnits="userSpaceOnUse"
       y2="959.20087"
       x2="427.0925"
       y1="953.27887"
       x1="427.26926"
       id="linearGradient5198"
       xlink:href="#linearGradient5192" />
    <linearGradient
       gradientUnits="userSpaceOnUse"
       y2="960.23718"
       x2="411.625"
       y1="952.23718"
       x1="411.625"
       id="linearGradient5208"
       xlink:href="#linearGradient5202" />
    <linearGradient
       gradientUnits="userSpaceOnUse"
       y2="960.61218"
       x2="340.0625"
       y1="958.17468"
       x1="340.0625"
       id="linearGradient5218"
       xlink:href="#linearGradient5212" />
    <linearGradient
       y2="960.61218"
       x2="340.0625"
       y1="958.17468"
       x1="340.0625"
       gradientUnits="userSpaceOnUse"
       id="linearGradient5224"
       xlink:href="#linearGradient5212" />
    <linearGradient
       gradientTransform="translate(-10.120466,0)"
       y2="960.61218"
       x2="340.0625"
       y1="958.17468"
       x1="340.0625"
       gradientUnits="userSpaceOnUse"
       id="linearGradient5236"
       xlink:href="#linearGradient5212" />
    <linearGradient
       gradientTransform="translate(-10.120466,0)"
       y2="960.61218"
       x2="340.0625"
       y1="958.17468"
       x1="340.0625"
       gradientUnits="userSpaceOnUse"
       id="linearGradient5238"
       xlink:href="#linearGradient5212" />
    <linearGradient
       gradientUnits="userSpaceOnUse"
       y2="962.55963"
       x2="407.20511"
       y1="956.38269"
       x1="407.20511"
       id="linearGradient5240"
       xlink:href="#linearGradient5242" />
    <linearGradient
       gradientUnits="userSpaceOnUse"
       y2="956.5271"
       x2="305.35965"
       y1="955.09082"
       x1="305.31546"
       id="linearGradient5264"
       xlink:href="#linearGradient5258" />
    <linearGradient
       gradientTransform="matrix(1.268331,0,0,1.268331,-38.427915,-291.17706)"
       gradientUnits="userSpaceOnUse"
       y2="916.38403"
       x2="259.03387"
       y1="866.48053"
       x1="254.21854"
       id="linearGradient5293"
       xlink:href="#linearGradient5287" />
    <linearGradient
       gradientTransform="matrix(1.268331,0,0,1.268331,-38.427914,-291.17706)"
       gradientUnits="userSpaceOnUse"
       y2="906.96338"
       x2="215.13724"
       y1="883.75867"
       x1="213.673"
       id="linearGradient5299"
       xlink:href="#linearGradient5287" />
    <filter
       id="filter5505"
       style="color-interpolation-filters:sRGB">
      <feFlood
         id="feFlood5507"
         result="flood"
         flood-color="rgb(0,0,0)"
         flood-opacity="0.27451" />
      <feComposite
         id="feComposite5509"
         result="composite1"
         operator="in"
         in2="SourceGraphic"
         in="flood" />
      <feGaussianBlur
         id="feGaussianBlur5511"
         result="blur"
         stdDeviation="1"
         in="composite1" />
      <feOffset
         id="feOffset5513"
         result="offset"
         dy="1.8"
         dx="0" />
      <feComposite
         id="feComposite5515"
         result="composite2"
         operator="over"
         in2="offset"
         in="SourceGraphic" />
    </filter>
    <radialGradient
       gradientUnits="userSpaceOnUse"
       gradientTransform="matrix(-0.00279021,-0.38715331,2.1509282,-0.00851413,-1800.5708,1044.3967)"
       r="49.615788"
       fy="964.12158"
       fx="244.26216"
       cy="964.12158"
       cx="244.26216"
       id="radialGradient5525"
       xlink:href="#linearGradient5519" />
  </defs>
  <metadata
     id="metadata7">
    <rdf:RDF>
      <cc:Work
         rdf:about="">
        <dc:format>image/svg+xml</dc:format>
        <dc:type
           rdf:resource="http://purl.org/dc/dcmitype/StillImage" />
        <dc:title></dc:title>
      </cc:Work>
    </rdf:RDF>
  </metadata>
  <g
     id="layer1"
     transform="translate(-127.54292,-763.52282)">
    <ellipse
       ry="19.873547"
       rx="110.84172"
       cy="942.27271"
       cx="276.61832"
       id="path5517"
       style="color:#000000;display:inline;overflow:visible;visibility:visible;opacity:0.27700004;fill:url(#radialGradient5525);fill-opacity:1;fill-rule:nonzero;stroke:#b2b2b2;stroke-width:0.39727992;stroke-linecap:butt;stroke-linejoin:round;stroke-miterlimit:4;stroke-dasharray:none;stroke-dashoffset:0;stroke-opacity:0;marker:none;enable-background:accumulate" />
    <g
       transform="matrix(1.268331,0,0,1.268331,-68.507582,-239.30967)"
       id="g4278"
       style="color:#000000;display:inline;overflow:visible;visibility:visible;opacity:1;fill:#803300;fill-opacity:1;fill-rule:nonzero;stroke:#a05a2c;stroke-width:17.71653557;stroke-linecap:butt;stroke-linejoin:round;stroke-miterlimit:4;stroke-dasharray:none;stroke-dashoffset:0;stroke-opacity:1;marker:none;filter:url(#filter5505);enable-background:accumulate">
      <path
         id="path4288"
         style="fill:#afafde;fill-rule:evenodd;stroke:none;stroke-width:1px;stroke-linecap:butt;stroke-linejoin:round;stroke-opacity:1"
         d="m 162.81936,935.61169 65.53365,37.13933 53.04767,-30.40875 -66.06924,-24.57585 z"
         points="228.35301,972.75102 281.40068,942.34227 215.33144,917.76642 162.81936,935.61169 " />
      <path
         id="path4280"
         style="fill:#353564;fill-rule:evenodd;stroke:none;stroke-width:1px;stroke-linecap:butt;stroke-linejoin:round;stroke-opacity:1"
         d="m 162.81936,932.21096 0,3.40073 52.51208,-17.84527 0,-2.84279 z"
         points="162.81936,935.61169 215.33144,917.76642 215.33144,914.92363 162.81936,932.21096 " />
      <path
         id="path4290"
         style="fill:#e9e9ff;fill-rule:evenodd;stroke:none;stroke-width:1px;stroke-linecap:butt;stroke-linejoin:round;stroke-opacity:1"
         d="m 215.33144,914.92363 66.06924,23.80747 0,3.61117 -66.06924,-24.57585 z"
         points="281.40068,938.7311 281.40068,942.34227 215.33144,917.76642 215.33144,914.92363 " />
      <path
         id="path4282"
         style="fill:#4d4d4d;fill-rule:evenodd;stroke:none;stroke-width:1px;stroke-linecap:butt;stroke-linejoin:round;stroke-opacity:1"
         d="m 162.81936,932.21096 65.53365,35.97815 53.04767,-29.45801 -66.06924,-23.80747 z"
         points="228.35301,968.18911 281.40068,938.7311 215.33144,914.92363 162.81936,932.21096 " />
      <path
         id="path4286"
         style="fill:#666666;fill-rule:evenodd;stroke:none;stroke-width:1px;stroke-linecap:butt;stroke-linejoin:round;stroke-opacity:1"
         d="m 228.35301,968.18911 0,4.56191 53.04767,-30.40875 0,-3.61117 z"
         points="228.35301,972.75102 281.40068,942.34227 281.40068,938.7311 228.35301,968.18911 " />
      <path
         id="path4284"
         style="fill:#333333;fill-rule:evenodd;stroke:none;stroke-width:1px;stroke-linecap:butt;stroke-linejoin:round;stroke-opacity:1"
         d="m 162.81936,932.21096 65.53365,35.97815 0,4.56191 -65.53365,-37.13933 z"
         points="228.35301,968.18911 228.35301,972.75102 162.81936,935.61169 162.81936,932.21096 " />
    </g>
    <g
       id="g4418"
       style="color:#000000;display:inline;overflow:visible;visibility:visible;opacity:1;fill:#ffffff;fill-opacity:1;fill-rule:evenodd;stroke:none;stroke-width:1px;stroke-linecap:butt;stroke-linejoin:round;stroke-miterlimit:4;stroke-dasharray:none;stroke-dashoffset:0;stroke-opacity:1;marker:none;enable-background:accumulate">
      <path
         id="path4428"
         style="fill:#ffffff;fill-rule:evenodd;stroke:none;stroke-width:1px;stroke-linecap:butt;stroke-linejoin:round;stroke-opacity:1"
         d="m 146.00881,943.67162 75.27096,40.19628 59.49151,-32.16655 -75.79216,-27.92704 z"
         points="221.27977,983.8679 280.77128,951.70135 204.97912,923.77431 146.00881,943.67162 " />
      <path
         id="path4420"
         style="fill:#ffffff;fill-rule:evenodd;stroke:none;stroke-width:1px;stroke-linecap:butt;stroke-linejoin:round;stroke-opacity:1"
         d="m 146.00881,943.51215 0,0.15947 58.97031,-19.89731 0,-0.13584 z"
         points="146.00881,943.67162 204.97912,923.77431 204.97912,923.63847 146.00881,943.51215 " />
      <path
         id="path4430"
         style="fill:#ffffff;fill-rule:evenodd;stroke:none;stroke-width:1px;stroke-linecap:butt;stroke-linejoin:round;stroke-opacity:1"
         d="m 204.97912,923.63847 75.79216,27.89388 0,0.169 -75.79216,-27.92704 z"
         points="280.77128,951.53235 280.77128,951.70135 204.97912,923.77431 204.97912,923.63847 " />
      <path
         id="path4422"
         style="fill:#ffffff;fill-rule:evenodd;stroke:none;stroke-width:1px;stroke-linecap:butt;stroke-linejoin:round;stroke-opacity:1"
         d="m 146.00881,943.51215 75.27096,40.14854 59.49151,-32.12834 -75.79216,-27.89388 z"
         points="221.27977,983.66069 280.77128,951.53235 204.97912,923.63847 146.00881,943.51215 " />
      <path
         id="path4426"
         style="fill:#ffffff;fill-rule:evenodd;stroke:none;stroke-width:1px;stroke-linecap:butt;stroke-linejoin:round;stroke-opacity:1"
         d="m 221.27977,983.66069 0,0.20721 59.49151,-32.16655 0,-0.169 z"
         points="221.27977,983.8679 280.77128,951.70135 280.77128,951.53235 221.27977,983.66069 " />
      <path
         id="path4424"
         style="fill:#ffffff;fill-rule:evenodd;stroke:none;stroke-width:1px;stroke-linecap:butt;stroke-linejoin:round;stroke-opacity:1"
         d="m 146.00881,943.51215 75.27096,40.14854 0,0.20721 -75.27096,-40.19628 z"
         points="221.27977,983.66069 221.27977,983.8679 146.00881,943.67162 146.00881,943.51215 " />
    </g>
    <path
       style="fill:#0078d6"
       d="m 212.36969,928.83752 c 7.4078,3.62405 15.24316,7.49388 23.49949,11.64147 -6.26134,2.62365 -12.78774,5.35318 -19.60045,8.19716 -9.51121,-4.13475 -18.35142,-8.06854 -26.79263,-11.74022 7.97737,-2.81922 15.59054,-5.51766 22.89372,-8.09836 0,0 -1.3e-4,-5e-5 -1.3e-4,-5e-5 m 25.85054,12.83164 c 6.91349,3.30629 14.13687,6.80616 21.57827,10.54465 0,0 -16.6436,8.22372 -16.6436,8.22372 -8.52955,-3.67334 -16.52458,-7.22662 -24.25409,-10.56307 6.70725,-2.84683 13.13405,-5.57984 19.31939,-8.20531 0,0 3e-5,1e-5 3e-5,1e-5 m 2.77494,19.83552 c 0,0 -19.02692,9.40134 -19.02692,9.40134 -9.6326,-3.69247 -18.78308,-7.2399 -27.66717,-10.55945 7.74162,-3.3037 15.18053,-6.4502 22.28735,-9.47262 7.70573,3.39027 15.92068,6.88881 24.40692,10.63081 0,0 -1.8e-4,-8e-5 -1.8e-4,-8e-5 m -27.28385,-11.72142 c -7.16856,2.98787 -14.6512,6.10091 -22.46304,9.35677 -10.91169,-4.18036 -21.26024,-8.11915 -31.16108,-11.79889 9.3029,-3.29245 18.15083,-6.43233 26.6133,-9.41887 0,0 27.01083,11.86099 27.01083,11.86099 0,0 -1e-5,0 -1e-5,0"
       id="path5" />
    <path
       id="path5283"
       d="m 344.07667,799.6246 c -26.68115,-0.44843 -111.65725,17.48848 -117.48676,25.11167 -5.82949,7.62318 -11.65898,30.04431 -12.10741,35.87382 -0.44842,5.82949 11.659,9.86529 44.84228,8.96844 33.18328,-0.89683 66.24718,10.52956 82.95821,-7.17476 16.71102,-17.70431 28.47483,-62.33076 1.79368,-62.77917 z"
       style="fill:url(#linearGradient5293);fill-opacity:1;fill-rule:evenodd;stroke:#000000;stroke-width:1.26833105px;stroke-linecap:butt;stroke-linejoin:miter;stroke-opacity:1" />
    <g
       transform="matrix(0.31005689,-1.2298489,1.2298489,0.31005689,-1056.0563,1013.0827)"
       id="g5268">
      <path
         style="fill:url(#linearGradient5264);fill-opacity:1;fill-rule:evenodd;stroke:none;stroke-width:0.40000001;stroke-linecap:butt;stroke-linejoin:miter;stroke-miterlimit:4;stroke-dasharray:none;stroke-opacity:1"
         d="m 306.49844,954.90842 c 0,0 -0.11519,0.17924 -0.31643,0.17924 -0.20124,0 -0.21308,-0.12627 -0.42616,-0.13022 -0.21308,-0.004 -1.62177,0.37881 -1.62177,0.37881 0,0 -0.22492,0.11443 -0.22886,0.3867 -0.004,0.27227 0.25254,0.50902 0.25254,0.50902 0,0 1.17982,0.37486 1.5389,0.37881 0.35908,0.004 0.32357,-0.14206 0.438,-0.146 0.11443,-0.004 0.34689,0.13632 0.34689,0.13632 0,0 -0.0683,-0.27538 -0.0489,-0.77523 0.0194,-0.49985 0.0658,-0.91745 0.0658,-0.91745 z"
         id="path5069" />
      <path
         style="opacity:1;fill:url(#linearGradient5184);fill-opacity:1;fill-rule:evenodd;stroke:none;stroke-width:0.40000001;stroke-linecap:butt;stroke-linejoin:miter;stroke-miterlimit:4;stroke-dasharray:none;stroke-opacity:1"
         d="m 316.25,951.52514 109.49773,0.42157 c 0,0 0.37881,1.57837 0.37881,4.35629 0,2.77792 -0.34724,4.04061 -0.34724,4.04061 l -109.5851,-0.32517 c 0,0 -0.4751,-1.63323 -0.4751,-4.19374 0,-2.56052 0.5309,-4.29956 0.5309,-4.29956 z"
         id="path5071" />
      <path
         style="opacity:0.47999998;fill:url(#linearGradient5208);fill-opacity:1;fill-rule:evenodd;stroke:none;stroke-width:0.40000001;stroke-linecap:butt;stroke-linejoin:miter;stroke-miterlimit:4;stroke-dasharray:none;stroke-opacity:1"
         d="m 399.40595,951.84529 c 0,0 0.3128,3.17315 0.2503,4.79815 -0.0625,1.625 -0.46753,3.62127 -0.46753,3.62127 l 26.59058,0.0789 c 0,0 0.34664,-1.58394 0.34664,-4.23182 0,-2.64788 -0.37821,-4.16508 -0.37821,-4.16508 z"
         id="path5073" />
      <path
         style="fill:url(#linearGradient5240);fill-opacity:1;fill-rule:evenodd;stroke:#333333;stroke-width:0.2;stroke-linecap:butt;stroke-linejoin:miter;stroke-miterlimit:4;stroke-dasharray:none;stroke-opacity:1"
         d="m 423.75584,958.29489 c 0,1.90035 -2.05503,1.96664 -2.05503,1.96664 l -31.26738,0 c 0,0 -0.72921,0.13258 -0.7513,0.41985 -0.0221,0.28726 0.30936,0.46404 0.7071,0.53033 0.39775,0.0663 0.95018,0.13258 0.95018,0.13258 l 29.65429,0 c 0,0 1.21534,0.28726 1.28163,-0.7513 0.0663,-1.03856 0.7292,-1.12695 0.81759,-1.10486 0.0884,0.0221 0.53033,-0.7071 0.55243,-0.0663 0.0221,0.64082 -0.15468,0.33146 -0.13258,0.7734 0.0221,0.44194 0.0221,-1.03856 0.0221,0.70711 0,1.74567 -1.87825,1.67938 -1.87825,1.67938 l -30.64866,0 c 0,0 -2.47487,-0.46404 -2.47487,-1.76777 0,-1.30373 0.30317,-1.35833 0.94708,-1.64039 0.64391,-0.28206 1.08585,-0.45883 1.74876,-0.45883 0.66292,0 29.85317,0 29.85317,0 0,0 0.99437,0.15468 1.17114,-0.0221 0.17678,-0.17678 0.0442,-0.97227 0.0884,-1.28163 0.0442,-0.30936 0.19888,-0.86179 0.61872,-0.86179 0.41984,0 0.68501,0.50823 0.7513,0.70711 0.0663,0.19887 0.0442,1.03856 0.0442,1.03856 z"
         id="path5079" />
      <path
         style="fill:url(#linearGradient5198);fill-opacity:1;fill-rule:evenodd;stroke:#000000;stroke-width:0.40000001;stroke-linecap:butt;stroke-linejoin:miter;stroke-miterlimit:4;stroke-dasharray:none;stroke-opacity:1"
         d="m 425.94965,953.13465 2.11512,-0.0105 c 0,0 0.33145,1.06066 0.28726,3.20408 -0.0442,2.14342 -0.30936,2.71794 -0.30936,2.71794 l -2.0674,0.14004 c 0,0 0.17528,-1.73215 0.15115,-2.96817 -0.0241,-1.23603 -0.17677,-3.08341 -0.17677,-3.08341 z"
         id="path5081" />
      <g
         id="g5226">
        <path
           style="fill:url(#linearGradient5224);fill-opacity:1;fill-rule:evenodd;stroke:#878791;stroke-width:0.1;stroke-linecap:butt;stroke-linejoin:miter;stroke-miterlimit:4;stroke-dasharray:none;stroke-opacity:1"
           d="m 337.66558,957.79391 4.90556,-0.0663 c 0,0 1.98874,0.37565 1.98874,1.50261 0,1.12695 -1.30373,1.06066 -1.30373,1.06066 l -5.48008,0 c 0,0 -1.56889,0.24306 -1.56889,-1.08276 0,-1.32583 1.4584,-1.41421 1.4584,-1.41421 z"
           id="path5220" />
        <path
           id="path5083"
           d="m 337.66558,958.18441 4.90556,-0.0663 c 0,0 1.98874,0.37565 1.98874,1.50261 0,1.12695 -1.30373,1.06066 -1.30373,1.06066 l -5.48008,0 c 0,0 -1.56889,0.24306 -1.56889,-1.08276 0,-1.32583 1.4584,-1.41421 1.4584,-1.41421 z"
           style="fill:url(#linearGradient5218);fill-opacity:1;fill-rule:evenodd;stroke:#afb8c1;stroke-width:0.1;stroke-linecap:butt;stroke-linejoin:miter;stroke-miterlimit:4;stroke-dasharray:none;stroke-opacity:1" />
      </g>
      <path
         style="color:#000000;display:inline;overflow:visible;visibility:visible;opacity:1;fill:url(#linearGradient5142);fill-opacity:1;fill-rule:nonzero;stroke:none;stroke-width:0.40000001;stroke-linecap:butt;stroke-linejoin:round;stroke-miterlimit:4;stroke-dasharray:none;stroke-dashoffset:0;stroke-opacity:0.4545455;marker:none;enable-background:accumulate"
         d="m 307.7109,957.65884 c -1.2128,-0.34709 -1.0932,-0.2757 -1.20559,-0.71962 -0.10395,-0.41047 -0.13087,-0.82821 -0.0932,-1.44352 0.0174,-0.2837 0.0436,-0.6022 0.0584,-0.70778 0.0347,-0.24894 0.14472,-0.67334 0.18408,-0.70956 0.0271,-0.0251 2.23109,-0.58404 2.23109,-0.58404 -0.13515,1.05232 -0.19772,2.15417 -0.17204,3.1276 0.0421,0.40929 0.15637,1.31118 0.15637,1.31118 0,0 -0.5812,-0.10881 -1.15912,-0.27421 z"
         id="path5110" />
      <path
         style="color:#000000;display:inline;overflow:visible;visibility:visible;opacity:1;fill:url(#linearGradient5154);fill-opacity:1;fill-rule:nonzero;stroke:none;stroke-width:0.40000001;stroke-linecap:butt;stroke-linejoin:round;stroke-miterlimit:4;stroke-dasharray:none;stroke-dashoffset:0;stroke-opacity:0.4545455;marker:none;enable-background:accumulate"
         d="m 312.47253,958.97556 c -1.9708,-0.561 -3.59027,-1.02701 -3.59883,-1.03557 -0.0334,-0.0334 -0.15103,-1.0876 -0.18531,-1.6611 -0.0412,-0.68902 0.0559,-1.69892 0.10359,-2.16031 0.0477,-0.46139 0.0937,-0.62426 0.0937,-0.62426 2.44604,-0.68376 4.91013,-1.31286 7.36429,-1.96918 -0.15604,0.54002 -0.21212,1.08614 -0.33607,1.62574 -0.18014,1.40303 -0.19198,4.0309 0.0429,5.65459 0.0538,0.37193 0.23733,1.21297 0.23733,1.21297 0,0 -1.75077,-0.48182 -3.72157,-1.04284 z"
         id="path5146" />
      <g
         id="g5230"
         transform="translate(10.120466,0)">
        <path
           id="path5232"
           d="m 337.66558,957.79391 4.90556,-0.0663 c 0,0 1.98874,0.37565 1.98874,1.50261 0,1.12695 -1.30373,1.06066 -1.30373,1.06066 l -5.48008,0 c 0,0 -1.56889,0.24306 -1.56889,-1.08276 0,-1.32583 1.4584,-1.41421 1.4584,-1.41421 z"
           style="fill:url(#linearGradient5236);fill-opacity:1;fill-rule:evenodd;stroke:#878791;stroke-width:0.1;stroke-linecap:butt;stroke-linejoin:miter;stroke-miterlimit:4;stroke-dasharray:none;stroke-opacity:1" />
        <path
           style="fill:url(#linearGradient5238);fill-opacity:1;fill-rule:evenodd;stroke:#afb8c1;stroke-width:0.1;stroke-linecap:butt;stroke-linejoin:miter;stroke-miterlimit:4;stroke-dasharray:none;stroke-opacity:1"
           d="m 337.66558,958.18441 4.90556,-0.0663 c 0,0 1.98874,0.37565 1.98874,1.50261 0,1.12695 -1.30373,1.06066 -1.30373,1.06066 l -5.48008,0 c 0,0 -1.56889,0.24306 -1.56889,-1.08276 0,-1.32583 1.4584,-1.41421 1.4584,-1.41421 z"
           id="path5234" />
      </g>
    </g>
    <path
       style="fill:url(#linearGradient5299);fill-opacity:1;fill-rule:evenodd;stroke:none;stroke-width:1px;stroke-linecap:butt;stroke-linejoin:miter;stroke-opacity:1"
       d="m 231.55066,821.20181 c -12.80814,4.99182 10.95827,12.83923 18.13302,17.32345 7.17478,4.48424 5.26898,10.87425 -6.83844,18.38533 -12.10741,7.51109 -17.20427,11.31693 -20.31983,10.26213 -3.11558,-1.05479 -0.64393,-32.79537 2.71924,-39.85802 3.36317,-7.06267 6.30601,-6.11289 6.30601,-6.11289 z"
       id="path5297" />
    <path
       id="path5285"
       d="m 231.55066,821.20181 c -12.80814,4.99182 10.95827,12.83923 18.13302,17.32345 7.17478,4.48424 5.26898,10.87425 -6.83844,18.38533 -12.10741,7.51109 -17.20427,11.31693 -20.31983,10.26213"
       style="fill:none;fill-rule:evenodd;stroke:#b2b2b2;stroke-width:1.26833105px;stroke-linecap:butt;stroke-linejoin:miter;stroke-opacity:0.39545456" />
  </g>
</svg>
